<?xml version="1.0" encoding="UTF-8" standalone="no"?>
<svg
   xmlns:dc="http://purl.org/dc/elements/1.1/"
   xmlns:cc="http://creativecommons.org/ns#"
   xmlns:rdf="http://www.w3.org/1999/02/22-rdf-syntax-ns#"
   xmlns:svg="http://www.w3.org/2000/svg"
   xmlns="http://www.w3.org/2000/svg"
   xmlns:sodipodi="http://sodipodi.sourceforge.net/DTD/sodipodi-0.dtd"
   xmlns:inkscape="http://www.inkscape.org/namespaces/inkscape"
   height="512"
   width="512"
   id="svg2"
   version="1.1"
   inkscape:version="0.91 r13725"
   sodipodi:docname="system-suspend-hibernate.svg">
  <metadata
     id="metadata14">
    <rdf:RDF>
      <cc:Work
         rdf:about="">
        <dc:format>image/svg+xml</dc:format>
        <dc:type
           rdf:resource="http://purl.org/dc/dcmitype/StillImage" />
        <dc:title></dc:title>
      </cc:Work>
    </rdf:RDF>
  </metadata>
  <defs
     id="defs12" />
  <sodipodi:namedview
     pagecolor="#ffffff"
     bordercolor="#666666"
     borderopacity="1"
     objecttolerance="10"
     gridtolerance="10"
     guidetolerance="10"
     inkscape:pageopacity="0"
     inkscape:pageshadow="2"
     inkscape:window-width="640"
     inkscape:window-height="480"
     id="namedview10"
     showgrid="false"
     inkscape:zoom="0.67045455"
     inkscape:cx="-455.25935"
     inkscape:cy="-28.26091"
     inkscape:current-layer="svg2" />
  <g
     transform="matrix(1.2880723,0,0,1.2880723,-73.746509,-73.746509)"
     id="g4"
     style="fill:#fefefe;fill-rule:evenodd">
    <path
       d="m 256,106 c -82.84,0 -150,67.16 -150,150 0,82.84 67.16,150 150,150 82.84,0 150,-67.16 150,-150 0,-82.84 -67.16,-150 -150,-150 m 0,50.15 c 55.14,0 99.84,44.707 99.84,99.85 0,55.14 -44.703,99.85 -99.84,99.85 -55.14,0 -99.84,-44.707 -99.84,-99.85 0,-55.14 44.703,-99.85 99.84,-99.85"
       id="path6"
       inkscape:connector-curvature="0" />
    <rect
       height="130.13"
       rx="25"
       width="50"
       x="231"
       y="190.94"
       id="rect8" />
  </g>
</svg>
